<?xml version="1.0" encoding="utf-8"?>
<!-- Generator: Adobe Illustrator 22.0.1, SVG Export Plug-In . SVG Version: 6.00 Build 0)  -->
<svg version="1.1" id="Layer_1" xmlns="http://www.w3.org/2000/svg" xmlns:xlink="http://www.w3.org/1999/xlink" x="0px" y="0px"
	 viewBox="0 0 529.276 709.23" style="enable-background:new 0 0 529.276 709.23;" xml:space="preserve">
<style type="text/css">
	.st0{fill:#FFFFFF;}
	.st1{fill:#E6332A;}
</style>
<g>
	<path class="st0" d="M0.0005,230.6602c0.0636,38.6445,5.7768,77.069,7.0391,115.6929c1.0938,33.4706-1.158,66.9464-2.8121,100.394
		c-4.025,81.3899-4.5047,163.1374,3.8136,244.2011c35.4646,5.5881,71.5598,5.2978,107.4606,4.9938
		c130.949-1.1086,261.898-2.2172,392.8471-3.3259c1.7749-0.015,3.726-0.0958,5.0353-1.2943
		c1.4341-1.3127,1.5845-3.4824,1.6367-5.426c2.6828-99.7155,5.3655-199.431,8.0483-299.1465
		c1.2354-45.9185,2.4707-91.872,0.8668-137.7791C521.0188,165.4806,508.7331,82.6352,496.4671,0
		C452.8687,13.3658,413.224,7.5904,367.676,9.7913c-76.7791,3.7098-55.6076,1.6735-132.4128-1.4471
		c-19.2013-0.7801-95.0518,0.6865-114.2309-0.5206c-12.0596-0.759-82.0794,2.0301-92.7627,9.6589
		c-17.4797,12.482-13.0702,66.4916-15.6555,85.4718C6.8411,145.3358-0.0701,187.7667,0.0005,230.6602z"/>
	<g>
		<path d="M7.7259,690.9081c-0.624-88.668,0.19-177.3459,2.464-265.987c2.263-88.192,5.962-176.346,11.098-264.417
			c2.881-49.428,6.22-98.828,10.001-148.195c0.247-3.209-4.755-3.193-5,0c-6.772,88.412-12.111,176.932-15.991,265.518
			c-3.86,88.136-6.284,176.335-7.27,264.55c-0.554,49.509-0.651,99.021-0.302,148.5309
			C2.7479,694.1251,7.7489,694.1321,7.7259,690.9081"/>
		<path d="M9.305,693.4647c67.004-0.12,134.024-0.239,201.005,1.798c33.475,1.018,66.937,2.576,100.346,4.94
			c33.125,2.345,66.194,5.78,99.403,6.76c36.915,1.09,73.868-1.163,110.397-6.572c3.172-0.47,1.824-5.288-1.329-4.822
			c-32.766,4.852-65.92,7.062-99.041,6.611c-32.854-0.446-65.574-3.664-98.313-6.159c-66.463-5.065-133.128-6.822-199.765-7.377
			c-37.567-0.314-75.136-0.246-112.703-0.179C6.088,688.4697,6.082,693.4697,9.305,693.4647"/>
		<path d="M513.7377,697.0126c-9.8621-43.436,0.351-88.253,5.041-131.682c4.81-44.538,6.869-89.335,7.347-134.117
			c0.955-89.43-4.344-178.757-6.5649-268.13c-1.249-50.287-1.507-100.622,0.827-150.883c0.15-3.216-4.85-3.209-5,0
			c-2.083,44.87-2.106,89.803-1.193,134.703c0.914,44.964,2.744,89.901,4.311,134.846c1.572,45.097,2.881,90.217,2.72,135.347
			c-0.16,44.783-1.775,89.592-6.021,134.186c-2.107,22.123-5.308,44.095-7.843,66.167c-2.491,21.688-4.005,43.69-1.189,65.426
			c0.673,5.199,1.5829,10.353,2.744,15.466C509.6287,701.4776,514.4506,700.1506,513.7377,697.0126"/>
		<path d="M32.2313,14.8095c29.613-2.171,59.162-5.16,88.801-6.986c30.776-1.897,61.634-1.758,92.455-1.999
			c32.505-0.254,65.013-0.352,97.518-0.033c32.559,0.3199,65.116,1.0569,97.646,2.485c32.318,1.419,64.61,3.52,96.813,6.6
			c4.039,0.387,8.075,0.79,12.111,1.206c3.198,0.331,3.175-4.672,0-5c-32.137-3.317-64.372-5.638-96.639-7.232
			c-32.508-1.608-65.05-2.487-97.594-2.917c-32.528-0.43-65.058-0.408-97.587-0.197c-31.142,0.202-62.383-0.105-93.493,1.4561
			c-29.868,1.499-59.637,4.442-89.443,6.8069c-3.528,0.281-7.058,0.551-10.588,0.81
			C29.0413,10.0435,29.0163,15.0455,32.2313,14.8095"/>
		<path d="M507.7318,676.1835c3.218,0,3.223-5,0-5C504.5147,671.1835,504.5087,676.1835,507.7318,676.1835"/>
	</g>
	<path class="st1" d="M104.4676,505.0409c0.9,2.68,17.218-15.276,30.449-11.382c14.688,4.323-20.109,22.863-16.681,24.074
		c20.742,7.326,37.341,2.465,53.904-12.012c12.549-10.969,21.924-31.773,42.038-42.977c17.386-9.683,26.155-14.652,31.739-39.769
		c4.932-22.191,6.747-44.185,1.445-60.175c-7.252-21.867-24.474-42.697-38.447-61.013c-23.568-30.892-58.506-61.85-52.236-107.3
		c1.623-11.764,3.905-25.591,14.889-30.1021c15.465-6.351,30.273,9.833,39.159,23.994c7.331,11.683,24.267,26.179,38.739,27.542
		c5.849,0.551,10.653,4.879,12.176,10.554c3.153,11.748,6.657,24.834,14.972,31.014c5.293,3.933,18.044-3.361,24.211-1.029
		c9.919,7.096,17.619,20.536,32.623,24.432s46.246,21.698,78.565,12.537c5.476-1.553,25.496-9.884,25.496-9.884
		s5.502,4.345,7.339,7.341c12.783,20.857,11.874,52.488,33.995,62.933c4.121,1.947,8.831,2.953,12.177,6.048
		c7.331,6.78,9.465,23.046,19.024,20.155c-2.724-29.266-17.975-55.672-32.87-81.011l-46.088-78.404
		c-12.65-21.519-27.181-41.847-42.967-61.183c-12.623-15.463-22.689-31.915-40.462-41.513
		c-41.79-22.566-86.087-60.177-119.73-75.375c-13.067-5.904-67.006,13.332-75.406,20.511c-27.617,23.6-30.761,62.753-41.394,97.49
		c-12.537,40.954-2.438,66.671,17.052,97.328c17.131,26.946,62.84,65.994,66.726,73.72c3.885,7.727,40.314,53.062,29.51,88.033
		c-8.816,28.531-45.382,53.171-74.842,57.686c-19.724,3.022-35.472,4.387-43.107,22.823"/>
	<g>
		<path d="M8.7113,466.8016c0.152-0.038,0.316-0.051,0.466-0.095c0.418-0.122-0.578,0.061-0.251,0.032
			c0.112-0.01,0.222-0.028,0.334-0.037c0.551-0.045,1.1-0.087,1.652-0.115c1.496-0.071,2.994-0.088,4.492-0.092
			c3.728-0.009,7.456,0.077,11.182,0.188c7.787,0.231,15.561,0.667,23.34,1.083c25.995,1.389,51.989,2.818,77.983,4.231
			c14.636,0.795,29.273,1.585,43.911,2.359c3.216,0.171,3.206-4.83,0-5c-26.216-1.386-52.431-2.823-78.645-4.251
			c-21.456-1.17-42.922-2.639-64.399-3.353c-4.197-0.139-8.397-0.251-12.596-0.257c-2.852-0.004-6.002-0.207-8.799,0.486
			C4.2603,462.7526,5.5823,467.5746,8.7113,466.8016"/>
		<path d="M520.767,474.7782c-22.251-1.565-44.533-2.645-66.825-3.386c-22.297-0.742-44.605-1.149-66.912-1.386
			c-22.205-0.237-44.412-0.305-66.619-0.365c-18.643-0.05-37.286-0.092-55.929-0.135c-18.825-0.043-37.651-0.085-56.477-0.134
			c-2.088-0.005-4.175-0.011-6.263-0.017c-3.218-0.008-3.223,4.992,0,5c18.509,0.05,37.019,0.092,55.529,0.134
			c18.714,0.043,37.428,0.085,56.142,0.134c21.79,0.056,43.58,0.108,65.369,0.301c22.309,0.199,44.618,0.547,66.919,1.208
			c22.294,0.663,44.581,1.637,66.838,3.088c2.743,0.179,5.486,0.366,8.228,0.558
			C523.978,480.0052,523.963,475.0042,520.767,474.7782"/>
		<path d="M107.7987,189.5468c3.648-22.709,8.081-45.407,13.988-67.645c4.762-17.927,11.209-36.428,23.949-50.355
			c13.773-15.058,33.353-21.1739,52.816-24.9839c10.639-2.082,21.899-4.513,32.426-0.687c4.802,1.745,9.199,4.504,13.462,7.277
			c5.044,3.282,10.048,6.623,15.071,9.936c20.121,13.276,40.241,26.551,60.361,39.827c18.627,12.29,37.451,24.339,53.142,40.381
			c14.599,14.924,26.594,32.122,37.641,49.772c11.792,18.842,22.937,38.117,34.129,57.319c11.539,19.797,22.832,39.744,33.398,60.08
			c5.278,10.157,10.375,20.41,15.226,30.778c2.3719,5.071,4.684,10.169,6.9319,15.296c2.221,5.068,4.355,10.227,5.524,15.656
			c1.088,5.054,1.065,10.131-0.805,14.995c1.524-0.199,3.047-0.398,4.5699-0.598c-6.198-9.354-12.111-18.995-18.662-28.105
			c-2.412-3.355-5.753-6.742-10.228-6.497c-3.88,0.213-7.323,2.881-7.49,6.907c1.552-0.42,3.105-0.841,4.658-1.262
			c-11.025-16.865-19.834-34.821-26.979-53.64c-2.57-6.772-5.631-14.152-11.319-18.932c-2.758-2.318-5.991-3.818-9.596-4.163
			c-2.34-0.224-4.662,0.223-7.002,0.134c-1.991-0.076-3.82-0.732-5.486-1.811c-9.589-6.211-7.703-19.504-6.119-29.053
			c0.522-3.147-4.295-4.501-4.821-1.329c-1.594,9.6039-3.196,20.446,2.679,28.996c2.353,3.424,5.597,6.241,9.601,7.52
			c4.277,1.365,8.726-0.313,12.966,0.947c6.932,2.059,10.667,10.097,13.181,16.232c3.7,9.027,7.05,18.126,11.272,26.939
			c5.078,10.601,10.875,20.846,17.306,30.684c1.364,2.086,4.554,1.258,4.659-1.262c0.11-2.657,4.103-1.933,5.466-0.984
			c3.057,2.13,4.993,6.144,7.002,9.177c4.865,7.342,9.73,14.684,14.594,22.026c1.254,1.892,3.796,1.416,4.57-0.597
			c4.075-10.599,0.174-21.916-4.052-31.806c-4.584-10.724-9.56-21.289-14.711-31.751c-10.345-21.009-21.594-41.56-33.223-61.882
			c-11.526-20.143-23.317-40.148-35.273-60.04c-10.972-18.253-22.489-36.286-36.304-52.547
			c-7.093-8.348-14.808-16.171-23.234-23.178c-8.798-7.316-18.219-13.832-27.739-20.164
			c-20.363-13.546-40.824-26.947-61.239-40.4171c-10.199-6.729-20.26-13.763-30.68-20.146c-4.495-2.753-9.282-5.235-14.411-6.565
			c-5.534-1.435-11.305-1.412-16.949-0.752c-10.512,1.228-21.138,3.4109-31.298,6.3719c-9.799,2.856-19.431,6.832-27.764,12.803
			c-15.973,11.445-25.4,29.061-31.603,47.298c-3.232,9.5-5.653,19.25-7.929,29.015c-2.748,11.793-5.22,23.649-7.413,35.557
			c-1.097,5.954-2.121,11.921-3.081,17.899C102.4716,191.3649,107.2886,192.7198,107.7987,189.5468"/>
		<path d="M184.1097,95.0389c15.39,4.603,30.803,9.329,45.618,15.5861c14.248,6.0179,28.124,13.525,39.866,23.687
			c6.053,5.24,11.517,11.144,16.144,17.683c5.336,7.541,9.736,15.681,14.396,23.6429c8.287,14.1591,18.287,28.789,33.525,36.132
			c1.875,0.903,3.812,1.701,5.79,2.351c1.957,0.642,4.087,1.291,6.17,1.159c2.244-0.143,4.314-1.174,5.5-3.137
			c1.088-1.801,1.276-3.981,1.306-6.037c0.137-9.355-1.477-18.81-4.695-27.593c-0.803-2.193-1.709-4.348-2.689-6.467
			c-1.218-2.632-5.252-0.738-4.57,1.927c3.575,13.962,13.349,26.148,26.252,32.591c1.194,0.595,2.723,0.343,3.421-0.897
			c3.01-5.349,4.447-11.496,4.004-17.626l-4.91,0.665c3.649,13.34,7.299,26.68,10.948,40.02c1.847,6.75,3.694,13.5,5.54,20.251
			c1.615,5.904,3.001,11.936,4.995,17.726c1.881,5.461,4.741,10.874,10.007,13.718c1.124,0.608,2.807,0.349,3.421-0.897
			c5.097-10.331,5.993-22.496,2.196-33.406c-0.443-1.275-1.711-2.121-3.075-1.746c-1.237,0.34-2.191,1.794-1.746,3.075
			c3.349,9.622,2.829,20.388-1.692,29.554c1.139-0.299,2.28-0.598,3.42-0.897c-4.043-2.184-6.189-6.369-7.649-10.558
			c-1.981-5.683-3.337-11.615-4.924-17.416l-10.552-38.573c-2.023-7.394-4.045-14.787-6.068-22.181
			c-0.723-2.642-5.119-2.217-4.911,0.665c0.383,5.287-0.718,10.477-3.321,15.102c1.139-0.299,2.28-0.598,3.42-0.896
			c-11.813-5.899-20.677-16.803-23.954-29.604c-1.523,0.643-3.046,1.285-4.57,1.927c3.75,8.104,6,16.951,6.562,25.864
			c0.135,2.14,0.208,4.3,0.122,6.444c-0.048,1.2079-0.122,2.988-1.531,3.3459c-1.608,0.408-3.595-0.431-5.098-0.925
			c-1.757-0.577-3.459-1.277-5.114-2.101c-14.51-7.224-23.757-21.284-31.667-34.863c-4.492-7.712-8.78-15.568-13.942-22.864
			c-4.619-6.528-9.942-12.511-15.925-17.818c-11.478-10.181-24.897-17.885-38.889-24.052c-14.333-6.319-29.244-11.169-44.22-15.705
			c-1.859-0.563-3.721-1.122-5.582-1.678C182.3497,89.2929,181.0287,94.1179,184.1097,95.0389"/>
		<path d="M185.9696,127.912c8.204,13.661,17.821,26.4771,28.582,38.228c10.726,11.714,22.606,22.334,35.349,31.81
			c12.731,9.469,26.355,17.734,40.63,24.657c14.286,6.929,29.219,12.556,44.555,16.677c15.392,4.135,31.21,6.761,47.119,7.76
			c1.956,0.122,3.914,0.219,5.872,0.293c3.218,0.121,3.213-4.879,0-5c-15.565-0.588-31.027-2.777-46.159-6.465
			c-15.066-3.672-29.793-8.777-43.89-15.237c-14.193-6.505-27.783-14.327-40.537-23.331c-12.727-8.984-24.592-19.187-35.388-30.418
			c-10.751-11.186-20.409-23.396-28.728-36.494c-1.051-1.655-2.079-3.323-3.088-5.003
			C188.6315,122.633,184.3065,125.144,185.9696,127.912"/>
		<path d="M172.3959,165.8886c5.604-3.061,12.608,1.366,17.054,4.652c5.042,3.727,9.253,8.544,13.16,13.41
			c8.075,10.058,15.214,20.93,26.055,28.308c5.999,4.082,12.972,6.728,20.289,6.707c3.216-0.009,3.223-5.009,0-5
			c-13.042,0.038-23.585-9.535-31.437-18.982c-8.376-10.076-15.348-21.492-26.182-29.224c-6.029-4.303-14.306-8.096-21.463-4.188
			C167.0468,163.1146,169.5679,167.4326,172.3959,165.8886"/>
		<path d="M245.0619,199.7411c4.344,8.139,8.128,16.562,11.277,25.233c1.584,4.363,3.015,8.781,4.289,13.244
			c1.189,4.167,1.956,8.617,4.041,12.462c3.916,7.222,12.171,8.813,19.726,8.522c3.566-0.137,7.561-0.223,10.807-1.862
			c1.672-0.845,3.033-2.326,3.574-4.1349c0.74-2.473-0.232-4.903-1.242-7.132c-4.642-10.241-9.38-20.439-14.07-30.659
			c-0.563-1.227-2.338-1.53-3.421-0.897c-1.259,0.738-1.461,2.189-0.896,3.421c3.827,8.341,7.655,16.682,11.483,25.023
			c0.924,2.014,1.906,4.011,2.775,6.05c0.321,0.754,0.813,1.815,0.625,2.658c-0.078,0.353-0.364,0.722-0.545,0.873
			c-0.984,0.818-2.497,1.069-3.721,1.244c-1.647,0.237-3.339,0.326-5.001,0.401c-3.192,0.144-6.44,0.071-9.511-0.907
			c-3.044-0.9709-5.257-2.985-6.637-5.8539c-1.703-3.54-2.332-7.674-3.423-11.429c-1.186-4.086-2.505-8.133-3.952-12.133
			c-3.311-9.15-7.279-18.063-11.861-26.646C247.8638,194.3781,243.5459,196.9011,245.0619,199.7411"/>
		<path d="M283.3451,258.8558c10.29,28.591,21.875,56.718,34.719,84.257c6.399,13.719,13.111,27.292,20.132,40.704
			c1.668,3.187,3.92,6.465,4.802,9.978c0.888,3.539-1.611,5.971-3.817,8.372c-5.037,5.483-10.029,11.009-14.976,16.575
			c-19.854,22.342-38.97,45.339-57.31,68.94c-18.227,23.454-35.576,47.532-52.345,72.045c-3.604,5.267-7.434,10.71-12.647,14.519
			c-5.634,4.118-12.46,5.782-19.228,6.953c-15.286,2.647-30.772,4.381-46.231,5.629c-3.907,0.316-7.816,0.59-11.728,0.829
			c-3.197,0.196-3.219,5.198,0,5c16.09-0.983,32.133-2.627,48.09-4.91c7.241-1.0359,14.696-1.882,21.659-4.22
			c6.59-2.213,12.181-6.001,16.786-11.197c4.645-5.242,8.387-11.242,12.342-17.002c4.273-6.223,8.599-12.412,12.976-18.563
			c8.813-12.388,17.835-24.628,27.058-36.713c18.444-24.164,37.719-47.697,57.75-70.563c5.043-5.756,10.135-11.469,15.275-17.14
			c2.466-2.721,4.989-5.395,7.429-8.139c2.343-2.634,4.36-5.655,4.115-9.34c-0.255-3.828-2.321-7.194-4.069-10.506
			c-1.766-3.347-3.514-6.704-5.243-10.07c-3.553-6.921-7.023-13.884-10.412-20.886c-13.462-27.817-25.614-56.261-36.403-85.219
			c-1.322-3.547-2.621-7.102-3.903-10.663C287.0851,254.5218,282.251,255.8178,283.3451,258.8558"/>
		<path d="M203.0062,572.6952c-13.811,14.637-28.493,30.186-48.345,36.177c-5.314,1.603-10.779,2.403-16.331,2.221
			c-3.219-0.105-3.215,4.895,0,5c21.688,0.711,40.485-12.253,55.414-26.707c4.397-4.255,8.599-8.7061,12.798-13.156
			C208.7492,573.8912,205.2202,570.3482,203.0062,572.6952"/>
		<path d="M155.2748,574.619c9.904,1.027,19.849,1.647,29.805,1.841c4.937,0.096,9.875,0.087,14.811-0.025
			c3.946-0.089,8.317-0.205,10.698-3.881c1.754-2.709-2.573-5.219-4.317-2.524c-0.583,0.9-1.91,1.136-2.955,1.262
			c-2.019,0.242-4.112,0.164-6.141,0.194c-4.69,0.07-9.381,0.047-14.07-0.07c-9.297-0.233-18.581-0.838-27.831-1.797
			c-1.345-0.14-2.5,1.249-2.5,2.5C152.7748,573.587,153.9258,574.479,155.2748,574.619"/>
		<path d="M298.1321,257.809c11.395,14.3781,27.29,24.668,44.444,30.861c19.676,7.104,41.054,8.687,61.796,7.125
			c11.136-0.838,22.641-2.374,32.368-8.262c2.749-1.664,0.239-5.989-2.524-4.317c-8.075,4.888-17.55,6.491-26.817,7.328
			c-10.215,0.923-20.516,1.102-30.743,0.254c-18.711-1.551-37.215-6.815-53.133-16.944c-8.307-5.286-15.736-11.858-21.856-19.581
			c-0.839-1.059-2.658-0.877-3.535,0C297.0861,255.319,297.2901,256.7471,298.1321,257.809"/>
		<path d="M384.3977,298.1591c7.43,9.188,15.417,17.918,23.932,26.113c4.189,4.032,8.504,7.935,12.934,11.701
			c4.382,3.725,9.03,7.121,13.419,10.83c1.9,1.606,3.712,3.361,4.867,5.592c1.277,2.467,1.41,5.344,1.568,8.06
			c0.355,6.095,0.872,12.177,1.576,18.242c1.401,12.065,3.44,24.048,5.926,35.935c5.003,23.936,11.74,47.46,18.345,70.989
			c3.298,11.748,6.568,23.505,9.582,35.329c1.493,5.855,2.923,11.726,4.262,17.617c1.283,5.651,3.588,12.168,1.673,17.899
			c-1.682,5.031-5.909,9.289-9.414,13.126c-3.623,3.965-7.489,7.71-11.564,11.21c-8.182,7.027-17.255,13.015-26.902,17.837
			c-2.44,1.2209-4.92,2.361-7.43,3.4319c-1.242,0.53-1.517,2.359-0.897,3.421c0.752,1.284,2.174,1.429,3.421,0.896
			c20.286-8.66,38.966-22.466,52.573-39.904c3.761-4.819,6.366-10.022,5.843-16.296c-0.521-6.237-2.343-12.4771-3.782-18.551
			c-2.88-12.147-6.109-24.207-9.441-36.235c-6.659-24.038-13.745-47.975-19.303-72.303c-2.762-12.089-5.143-24.273-6.883-36.555
			c-0.866-6.109-1.552-12.244-2.056-18.393c-0.478-5.843,0.016-12.432-2.561-17.841c-2.394-5.026-7.354-8.211-11.579-11.552
			c-4.706-3.722-9.292-7.594-13.751-11.608c-8.919-8.027-17.324-16.624-25.15-25.72c-1.927-2.238-3.815-4.51-5.673-6.806
			c-0.849-1.051-2.651-0.884-3.535,0C383.3587,295.6622,383.5447,297.1061,384.3977,298.1591"/>
		<path d="M425.6595,585.4179c17.266-5.05,29.526-19.039,45.29-26.947c4.263-2.139,8.79-3.664,13.517-4.347
			c1.338-0.193,2.072-1.891,1.746-3.075c-0.395-1.437-1.7339-1.941-3.075-1.746c-17.834,2.577-30.81,16.437-45.636,25.319
			c-4.16,2.492-8.508,4.61-13.171,5.975C421.2484,581.4979,422.5594,586.3239,425.6595,585.4179"/>
		<path d="M433.3713,560.8153c17.548,0.189,35.718-1.917,51.692-9.61c1.216-0.586,1.539-2.322,0.897-3.42
			c-0.727-1.243-2.199-1.486-3.42-0.8979c-15.148,7.296-32.555,9.108-49.169,8.928
			C430.1523,555.7813,430.1503,560.7813,433.3713,560.8153"/>
		<path d="M102.911,188.8944c-3.085,37.5731,20.651,70.395,44.965,96.5081c24.03,25.8069,52.476,49.284,67.189,82.1679
			c7.594,16.974,11.474,37.476,4.541,55.289c-6.246,16.048-20.31,27.718-34.006,37.347c-3.455,2.43-6.968,4.776-10.496,7.099
			c-4.209,2.771-8.489,5.716-13.302,7.336c-9.015,3.034-18.653,0.761-27.919,1.776c-4.451,0.488-8.796,1.65-12.594,4.095
			c-3.408,2.194-6.238,5.119-8.802,8.231c-2.623,3.184-5.014,6.559-7.758,9.645c-2.994,3.367-6.427,6.036-10.32,8.296
			c-4.246,2.464-8.726,4.496-12.975,6.954c-3.684,2.132-7.197,4.536-10.541,7.169c-6.815,5.364-12.817,11.858-17.258,19.332
			c-8.637,14.536-10.499,33.111-2.779,48.458c1.816,3.609,4.202,6.909,7.003,9.818c1.372,1.425,4.559,0.456,4.267-1.768
			c-4.363-33.303,20.211-67.462,53.314-73.6479c18.618-3.479,39.175,1.217,55.02-11.675c6.975-5.675,11.742-13.549,16.796-20.855
			c2.554-3.692,5.219-7.31,8.356-10.535c3.482-3.58,7.448-6.621,11.56-9.436c8.006-5.482,16.534-10.263,23.81-16.744
			c6.264-5.579,11.356-12.483,14.955-20.052c7.272-15.3,8.853-32.758,6.694-49.418c-5.11-39.432-31.315-70.353-54.933-100.608
			c-12.752-16.335-25.801-33.314-33.505-52.733c-6.958-17.536-9.58-37.871,0.388-54.811c2.301-3.911,5.13-7.416,8.321-10.634
			c2.267-2.288-1.266-5.826-3.536-3.5359c-6.511,6.567-11.549,14.452-14.189,23.352c-2.615,8.817-2.739,18.119-1.331,27.155
			c3.243,20.813,14.336,39.485,26.426,56.344c12.049,16.802,25.555,32.499,37.602,49.3c11.274,15.722,21.547,32.628,26.721,51.418
			c4.547,16.512,5.614,34.453,0.943,51.062c-2.224,7.909-5.808,15.48-10.88,21.97c-5.904,7.554-13.687,12.98-21.66,18.138
			c-8.053,5.209-16.32,10.398-22.729,17.647c-6.079,6.877-10.46,15.011-16.219,22.128c-6.061,7.489-13.408,12.384-22.913,14.342
			c-9.728,2.004-19.773,1.426-29.619,2.356c-17.168,1.622-32.765,9.417-44.574,21.991c-11.514,12.256-19.059,28.317-20.216,45.163
			c-0.282,4.113-0.137,8.232,0.398,12.319c1.423-0.589,2.846-1.178,4.268-1.768c-11.754-12.21-13.139-31.577-6.359-46.614
			c3.542-7.855,8.898-14.7,15.275-20.456c6.711-6.058,14.397-10.324,22.36-14.483c4.255-2.222,8.444-4.631,12.053-7.828
			c3.007-2.664,5.498-5.833,7.956-8.992c5.274-6.775,10.505-13.216,19.414-14.827c9.074-1.641,18.394,0.559,27.484-1.268
			c9.171-1.843,17.107-8.062,24.686-13.218c13.839-9.417,27.813-20.108,36.293-34.868c9.536-16.599,9.131-36.298,3.743-54.211
			c-10.267-34.135-37.208-59.967-61.588-84.563c-12.972-13.086-25.571-26.673-35.778-42.076c-9.798-14.789-17.58-31.517-19.046-49.4
			c-0.36-4.39-0.336-8.793,0.024-13.181C108.1749,185.6874,103.173,185.7054,102.911,188.8944"/>
		<path d="M132.9422,496.3925c-1.247-0.521-2.627-0.513-3.937-0.295c-1.302,0.218-2.498,0.9-3.475,1.768
			c-0.13,0.169-0.26,0.337-0.39,0.506c-0.183,0.287-0.282,0.596-0.297,0.929c-0.06,0.222-0.06,0.443,0,0.664
			c0.015,0.333,0.114,0.643,0.297,0.93c0.176,0.4,0.467,0.761,0.759,1.079c0.282,0.308,0.637,0.573,0.998,0.781
			c0.771,0.444,1.64,0.65,2.524,0.68c0.445,0.016,0.898-0.062,1.333-0.134c0.238-0.039,0.47-0.103,0.695-0.189
			c0.814-0.311,1.604-0.715,2.194-1.378c0.785-0.881,1.223-1.904,1.26-3.091c0.02-0.629-0.292-1.329-0.732-1.769
			c-0.433-0.433-1.145-0.759-1.768-0.731c-1.389,0.062-2.455,1.098-2.5,2.5c-0.002,0.084-0.009,0.167-0.02,0.25l0.09-0.665
			c-0.027,0.176-0.074,0.343-0.143,0.506c0.084-0.198,0.168-0.398,0.253-0.597c-0.071,0.157-0.158,0.303-0.262,0.442
			c0.131-0.169,0.261-0.338,0.392-0.506c-0.128,0.161-0.272,0.303-0.434,0.431c0.169-0.13,0.337-0.259,0.506-0.39
			c-0.207,0.159-0.431,0.287-0.67,0.39c0.199-0.084,0.398-0.168,0.597-0.252c-0.292,0.122-0.597,0.204-0.911,0.246
			c0.222-0.03,0.443-0.059,0.665-0.089c-0.279,0.034-0.559,0.036-0.838,0.003c0.221,0.029,0.443,0.059,0.664,0.088
			c-0.239-0.032-0.47-0.089-0.694-0.179c0.199,0.084,0.398,0.168,0.597,0.252c-0.188-0.08-0.363-0.18-0.526-0.304
			c0.169,0.131,0.337,0.261,0.506,0.392c-0.136-0.11-0.256-0.231-0.363-0.369c0.13,0.169,0.261,0.337,0.391,0.506
			c-0.098-0.134-0.179-0.275-0.246-0.426l-0.391,3.029c0.076-0.068,0.153-0.133,0.233-0.196c-0.169,0.13-0.337,0.26-0.506,0.391
			c0.323-0.248,0.671-0.451,1.045-0.612c-0.199,0.084-0.398,0.168-0.597,0.252c0.4-0.165,0.815-0.278,1.244-0.339
			c-0.222,0.03-0.443,0.059-0.665,0.09c0.43-0.055,0.859-0.057,1.289-0.003c-0.222-0.029-0.443-0.06-0.665-0.089
			c0.403,0.058,0.793,0.162,1.169,0.319c0.555,0.232,1.433,0.036,1.926-0.252c0.519-0.303,1.013-0.898,1.149-1.494
			c0.146-0.639,0.114-1.358-0.252-1.927c-0.13-0.168-0.261-0.336-0.391-0.505
			C133.7332,496.7255,133.3652,496.5115,132.9422,496.3925"/>
		<path d="M60.8129,533.4794c0.062,3.674,2.821,7.012,6.289,8.227c3.467,1.214,7.441,0.478,10.553-1.476
			c-5.246,3.536-8.347,9.441-10.812,15.269c-5.169,12.218-8.486,25.2189-9.804,38.421c-1.889-10.987-9.125-21.144-7.94-32.23
			c0.387-3.624,1.671-7.083,2.944-10.497c1.067-2.859,2.133-5.718,3.199-8.576c0.529-1.42,1.062-2.846,1.789-4.175
			c1.101-2.014,2.653-3.818,3.293-6.024"/>
	</g>
</g>
</svg>
