<?xml version="1.0" encoding="utf-8"?>
<!-- Generator: Adobe Illustrator 22.0.1, SVG Export Plug-In . SVG Version: 6.00 Build 0)  -->
<svg version="1.1" id="Layer_1" xmlns="http://www.w3.org/2000/svg" xmlns:xlink="http://www.w3.org/1999/xlink" x="0px" y="0px"
	 viewBox="0 0 590.8898 445.2756" style="enable-background:new 0 0 590.8898 445.2756;" xml:space="preserve">
<style type="text/css">
	.st0{fill:#FFFFFF;}
	.st1{fill:none;stroke:#000000;stroke-width:5;stroke-linecap:round;stroke-linejoin:round;stroke-miterlimit:10;}
	.st2{fill:#7B6A58;}
</style>
<g>
	<path class="st0" d="M4.6517,168.5214c-2.2854,17.1044-5.8366,34.2807-4.2613,51.4651c1.0452,11.4021,4.3247,22.4648,6.4953,33.707
		c4.0911,21.189,4.2268,42.916,4.3488,64.496c0.2233,39.5209,0.4467,79.0419,0.67,118.5628
		c197.1813-0.6068,373.5615-3.37,570.7428-3.9768c-13.0975-62.5468-1.0617-105.4179,1.1127-161.1809
		C587.2916,181.0228,572.0541,90.6336,573.1863,0c-35.9214,7.368-72.8655,7.7314-109.5346,7.8539
		C345.8672,8.2475,228.0752,6.4411,110.3581,2.4359C87.5724,1.6606,64.7367,0.7867,41.9493,1.991
		C32.793,2.4749,16.6491,1.1894,8.3313,5.6693C-0.3058,10.3211,2.215,16.3158,3.106,25.7165
		C7.5994,73.1265,10.9865,121.1104,4.6517,168.5214z"/>
	<path class="st1" d="M575.0832,438.0589c3.6555-0.4316,6.4274-1.4322,7.1871-3.4025c0.2307-0.5984,0.306-1.2435,0.377-1.8809
		c3.6432-32.722-5.1227-64.103-3.2264-96.6786c1.8145-31.271,1.0015-62.9695-0.2451-94.2461
		c-1.2885-32.3266,1.1248-64.1295,1.8244-96.4877c0.2269-10.493,2.3312-138.9599-1.1257-138.5576
		c-50.5242,5.8806-101.0496,2.8003-151.9927,3.0969c-53.438,0.3111-106.9256,0.7423-160.3051-2.23
		c-46.6766-2.5991-93.4666-3.158-140.1921-1.6786c-22.5173,0.7129-46.568,4.9994-68.974,3.4199
		C52.5467,9.0001,4.1624,6.1808,4.7379,10.3137c0.879,6.3125,2.8607,12.1193,3.6383,18.4472
		c3.6444,29.673-1.2226,59.6216-3.0334,89.4512c-2.377,39.1558-0.8828,78.966-0.54,118.1343
		c0.1642,18.7576,2.7774,37.4632,2.1962,56.466c-1.4984,48.9865,5.7507,96.9721-0.647,145.9297
		c0.3813-2.9181,54.517,0.3859,59.8644-0.4099c4.9705-0.7397,8.4151,0.362,13.1146,0.3249
		c34.798-0.2746,69.5845-1.3886,104.384-1.5414c36.542-0.1604,74.0392,2.3042,110.8069,0.0896
		c16.5418-0.9963,33.1246-0.8289,49.6855-0.5756c41.8073,0.6394,83.8176,1.2581,125.7497,1.0611
		c3.7608-0.0177,7.5217-0.0353,11.2825-0.053c22.9069-0.1076,45.2135-0.7599,68.1811-0.7599
		C553.2648,436.9832,566.5702,439.064,575.0832,438.0589z"/>
	<path class="st2" d="M198.4063,48.8517c-1.677,1.7552-3.2722,3.7149-5.4855,4.7122c-4.6309,2.0864-10.9189-0.4886-14.6568,2.9502
		c-2.6172,2.4077-2.8158,6.9517-5.9115,8.702c-2.1335,1.2063-4.8893,0.5891-7.1331,1.5751
		c-1.9381,0.8517-3.1752,2.7436-4.3009,4.5366c-9.7977,15.6052-19.5953,31.2105-29.3929,46.8157
		c-13.2543,21.1108-26.7812,42.9109-31.1036,67.46c-4.3224,24.5491,2.7458,52.8215,23.5135,66.6072
		c8.702,5.7765,18.9826,8.5702,28.609,12.6232c18.9034,7.9588,35.2815,20.7827,51.408,33.4562
		c11.5089,9.0446,23.0178,18.0893,34.5267,27.1339c2.7533,2.1638,5.5976,6.437,2.8401,8.5953
		c6.5829,0.0312,11.3678,5.8911,16.1611,10.4032c4.7933,4.5121,12.8028,7.9356,17.5026,3.3262
		c-0.5579,9.6768,7.8857,17.2096,15.5534,23.139c13.2106,10.2159,26.4212,20.4317,39.6318,30.6476
		c6.8753,1.2569,13.7507,2.5138,20.626,3.7708c33.6855-28.6928,65.6344-59.4242,95.6136-91.9702
		c1.9495-2.1164,3.9252-4.2926,5.0763-6.9298c1.1348-2.5997,1.4014-5.4998,2.402-8.154
		c3.0769-8.1622,12.3945-12.5732,15.8298-20.5912c3.7441-8.7386,0.3566-21.0566,8.1196-26.5446
		c-0.2867-7.3059-0.5734-14.6117-0.8602-21.9176c-0.0898-2.2892-0.1899-4.6293-1.0316-6.7601
		c-1.2389-3.1367-3.9193-5.4384-6.5016-7.6075c-24.171-20.3024-48.3948-40.6449-74.517-58.3664
		c-21.7877-14.7808-44.9883-27.813-64.2694-45.741c-1.2477,1.9751-0.6169,4.8989,1.3341,6.1839
		c-12.1249-4.0178-24.5878-8.2227-34.278-16.5446c-6.2706-5.3852-11.0743-12.2491-15.5927-19.1705
		c-9.741-14.9215-18.4914-30.4896-26.1744-46.5679c-0.9047-1.8933-2.0613-4.0152-4.1126-4.4569
		c-1.1953-0.2574-2.424,0.1371-3.5829,0.5268C231.2286,36.4182,211.8479,35.4101,198.4063,48.8517z"/>
	<g>
		<path class="st1" d="M198.82,48.1342c-1.677,1.7552-3.2722,3.7149-5.4856,4.7122c-4.6309,2.0864-10.9189-0.4886-14.6568,2.9502
			c-2.6172,2.4077-2.8157,6.9517-5.9115,8.702c-2.1335,1.2063-4.8893,0.5891-7.1331,1.5751
			c-1.9381,0.8517-3.1753,2.7436-4.3009,4.5366c-9.7976,15.6052-19.5953,31.2105-29.3929,46.8157
			c-13.2542,21.1108-26.7812,42.9109-31.1036,67.46c-4.3224,24.5491,2.7458,52.8215,23.5135,66.6072
			c8.7021,5.7765,18.9826,8.5702,28.609,12.6232c18.9034,7.9588,35.2815,20.7827,51.408,33.4562
			c11.5089,9.0446,23.0178,18.0893,34.5267,27.1339c2.7533,2.1638,5.5977,6.437,2.8401,8.5953
			c6.5829,0.0312,11.3678,5.8911,16.1611,10.4033c4.7933,4.5121,12.8028,7.9356,17.5027,3.3262
			c-0.5579,9.6768,7.8857,17.2096,15.5534,23.139c13.2106,10.2159,26.4212,20.4317,39.6318,30.6476
			c6.8753,1.2569,13.7507,2.5138,20.626,3.7708c33.6855-28.6928,65.6344-59.4242,95.6136-91.9702
			c1.9495-2.1164,3.9252-4.2926,5.0763-6.9298c1.1348-2.5997,1.4014-5.4998,2.4019-8.154
			c3.0769-8.1622,12.3946-12.5732,15.8298-20.5912c3.7441-8.7386,0.3566-21.0567,8.1196-26.5446
			c-0.2867-7.3059-0.5735-14.6118-0.8602-21.9176c-0.0898-2.2892-0.19-4.6293-1.0316-6.7601
			c-1.2389-3.1367-3.9193-5.4384-6.5016-7.6075c-24.171-20.3024-48.3948-40.6449-74.517-58.3664
			c-21.7877-14.7808-44.9882-27.813-64.2694-45.741c-1.2477,1.9751-0.6169,4.8989,1.3341,6.1839
			c-12.1249-4.0178-24.5877-8.2227-34.278-16.5446c-6.2706-5.3852-11.0743-12.2491-15.5927-19.1705
			c-9.741-14.9215-18.4914-30.4896-26.1744-46.5679c-0.9047-1.8933-2.0613-4.0152-4.1126-4.4569
			c-1.1953-0.2574-2.424,0.1371-3.5829,0.5268C231.6423,35.7007,212.2616,34.6926,198.82,48.1342z"/>
		<path class="st1" d="M465.2312,222.1143c-6.2169,3.4356-12.6977,6.5196-18.2221,10.9843
			c-4.8715,3.937-8.8597,8.837-12.8094,13.6982c-14.9458,18.3948-29.8915,36.7896-44.8373,55.1844
			c-3.6335,4.472-7.2811,8.9592-11.4814,12.9037c-4.6057,4.3251-9.8374,7.9605-14.2853,12.4478
			c-11.2681,11.3676-16.6049,27.1667-21.5903,42.3766c-2.2808,6.9586-4.5617,13.9173-6.8425,20.8759"/>
		<path class="st1" d="M194.818,65.3463c1.3963,8.7932,11.524,13.0111,20.2987,14.5189c8.7747,1.5078,18.7982,2.5166,24.1689,9.6178
			c2.2953,3.035,3.7848,7.196,7.3973,8.3917c2.2637,0.7493,4.7636,0.0626,7.1064,0.5064c2.8136,0.533,5.048,2.603,7.1156,4.5842
			c10.2271,9.7995,20.4541,19.599,30.6811,29.3986c3.8762,3.7141,7.955,7.7916,8.9216,13.0722
			c0.9666,5.2806-3.0045,11.7089-8.3308,11.0383c-1.8838-0.2372-3.5591-1.2872-5.0986-2.3986
			c-5.0005-3.6098-9.3182-8.162-12.6588-13.3463c-2.8616-4.4408-5.0793-9.4212-8.9651-13.0002
			c-3.8858-3.579-10.24-5.2966-14.423-2.0698c-1.226,0.9458-2.3093,2.307-3.8501,2.4597c-1.6204,0.1606-3.0073-1.0966-4.0809-2.3209
			c-4.2036-4.7936-7.2699-10.4892-11.41-15.3377s-9.8488-8.9735-16.2242-8.9256c-0.9379,2.3584-1.8759,4.7168-2.8138,7.0752
			c-11.0536-4.8594-21.7549-10.5201-31.9921-16.9229c-0.736-0.4603-1.5044-0.962-1.8916-1.739
			c-0.9343-1.875,0.9015-4.0268,2.8538-4.7865s4.2024-0.8595,5.882-2.1115c-1.3018-5.498-3.5741-10.7648-6.6805-15.4842"/>
		<path class="st1" d="M172.4537,112.5725c11.9795,4.0091,21.9344,13.6599,26.3131,25.5092
			c2.4431-0.0317,4.8863-0.0634,7.3295-0.095c-4.0062,3.8268,0.2743,10.8778,5.5137,12.6786s11.2033,1.0358,16.197,3.4353
			c4.72,2.2681,8.2402,7.2112,13.4434,7.8024c6.2723,0.7127,13.9498-4.8928,18.0735-0.1132
			c2.7915,3.2355,0.7852,8.5284,2.7947,12.2997c1.4612,2.7423,4.6387,3.9908,7.5067,5.1866
			c13.0692,5.4493,24.7518,14.1881,33.6706,25.1861"/>
		<path class="st1" d="M266.1249,159.1733c4.1357,0.9953,8.6539,0.2913,12.2908-1.9149"/>
		<path class="st1" d="M292.6771,161.1704c0.9622,3.6713,4.3745,6.0541,6.8577,8.9242c3.6049,4.1666,5.3973,9.8494,4.8351,15.3303
			c9.6264,1.1275,18.9857,4.4768,27.1418,9.7129"/>
		<path class="st1" d="M324.2318,162.396c7.2613,5.0967,14.6356,10.0302,22.0091,14.9631
			c8.938,5.9796,17.876,11.9593,26.8141,17.9389c2.5109,1.6798,5.0779,3.413,6.8401,5.8668
			c2.058,2.8658,2.8199,6.4279,4.0469,9.7359c4.7683,12.8559,16.4316,21.6603,27.5195,29.727"/>
		<path class="st1" d="M343.1605,213.1003c0.3984-0.4763-0.806-0.8612-1.0066-0.2735c-0.2006,0.5877,0.3157,1.1587,0.7956,1.5529
			c5.1966,4.269,11.6618,6.6152,17.5664,9.8345c9.9528,5.4263,18.2934,13.3273,26.5101,21.1369
			c3.508,3.3342,7.2425,7.1203,7.6448,11.9434c0.1832,2.196-0.331,4.5675,0.7242,6.5022"/>
		<path class="st1" d="M291.5005,213.1169c8.2237,6.297,16.4473,12.5939,24.671,18.8909"/>
		<path class="st1" d="M220.2728,161.1924c7.1943,4.8622,13.626,10.8503,18.9892,17.6793c2.1083,2.6845,4.1309,6.2795,2.5792,9.3199
			c-0.6895,1.3509-1.9882,2.3105-2.6934,3.6532c-1.8651,3.5515,1.2418,7.8434,4.8227,9.6513
			c3.5809,1.8079,7.797,2.3583,11.0042,4.7677c3.0905,2.3217,4.7705,6.0043,6.6815,9.3644
			c8.5259,14.9907,24.1111,25.7594,41.1484,28.4318c4.0717,0.6387,8.2769,0.857,12.0883,2.4256
			c5.2474,2.1597,9.3669,6.7332,14.855,8.1759c6.0901,1.6009,12.6671-0.9778,18.7935,0.4781
			c4.1774,0.9928,7.6795,3.749,11.0329,6.4307c8.5986,6.8764,17.1972,13.7528,25.7958,20.6292"/>
		<path class="st1" d="M314.4467,255.117c10.1601,9.1876,21.3798,17.2025,33.3651,23.8351
			c6.7429,3.7314,14.1076,7.3771,17.9814,14.0392c1.2966,2.2299,2.2183,4.8141,4.2696,6.378"/>
		<path class="st1" d="M228.1413,211.5153c0.5675-0.1432-0.3239-1.0167-0.6688-0.5438c-0.3448,0.4729,0.016,1.1228,0.3694,1.5893
			c4.2839,5.654,8.5779,11.32,13.433,16.4917c1.9782,2.1072,4.0683,4.157,5.5394,6.6448c1.4649,2.4773,2.2618,5.3015,3.7046,7.7918
			c3.9669,6.8468,11.9847,10.0409,19.4161,12.7593c1.781,0.6515,3.6213,1.3126,5.5156,1.2213
			c1.2116-0.0584,2.3996-0.425,3.6124-0.4044c4.1575,0.0706,6.7613,4.304,9.2165,7.6598c2.4552,3.3558,7.2102,6.4308,10.4309,3.8008
			"/>
		<path class="st1" d="M131.7511,158.4134c4.362,8.3397,12.363,14.056,20.1196,19.3864c4.2289,2.9061,8.7343,5.8886,13.8512,6.2698
			c4.159,0.3098,8.2275-1.1459,12.368-1.6464c10.0397-1.2135,20.5736,3.7296,26.0563,12.2271"/>
		<path class="st1" d="M148.2351,128.806c8.1604,4.537,15.6474,10.2827,22.1411,16.9915c1.8101,1.87,3.5495,3.82,5.547,5.4884
			c3.0674,2.562,6.6618,4.3942,10.1086,6.4173c6.6432,3.8993,12.8302,8.5753,18.3943,13.9023"/>
		<path class="st1" d="M160.9243,165.8529c5.4017,2.7035,12.0006,2.89,17.5463,0.4958"/>
		<path class="st1" d="M127.696,137.4337c4.9561,0.6213,10.1584-1.1631,13.6897-4.6957"/>
		<path class="st1" d="M181.4794,104.9552c-3.8726,4.1501-11.5319,3.7069-14.9-0.8621c-1.0229-1.3876-1.6557-3.0171-2.277-4.6252
			c-1.8512-4.7919-3.7025-9.5837-5.5537-14.3756c-3.4906,0.971-3.3272,1.4638-5.3425-1.5471"/>
		<path class="st1" d="M253.293,81.1942c-2.5958-0.7187-5.1916-1.4373-7.7874-2.156c-2.2768-15.9975-27.146-13.9217-38.5442-20.4405
			"/>
		<path class="st1" d="M216.5669,47.6061c4.9051,1.8025,9.0709,5.5362,11.3977,10.2154"/>
		<path class="st1" d="M244.7673,45.6773c5.1713,6.3553,10.3425,12.7106,15.5138,19.0659c2.0298,2.4946,4.3095,5.1469,7.4576,5.8045
			c1.4347,0.2997,3.4216,0.593,3.4776,2.0576"/>
		<path class="st1" d="M259.3541,89.2017c-0.6851-4.2786-4.0364-8.012-8.2165-9.1534c0.9409-0.0081,1.8817-0.0163,2.8225-0.0244
			c8.2602-0.0714,15.459,3.6185,22.3897,8.1131"/>
		<path class="st1" d="M282.6053,113.5115c8.3099,5.3773,18.8103,5.6347,28.3006,8.4462
			c10.3282,3.0598,19.6746,9.3489,26.3992,17.764"/>
		<path class="st1" d="M346.5548,143.5379c0.9733,0.0403,1.9467,0.0806,2.92,0.1209c1.1226,2.9909,4.0452,4.9527,7.047,6.0457
			c3.0018,1.093,6.2114,1.5158,9.2307,2.5592c8.7449,3.0221,14.8486,10.7721,20.4427,18.1418"/>
		<path class="st1" d="M404.8658,180.895c5.0632,5.646,10.1264,11.2921,15.1896,16.9381"/>
		<path class="st1" d="M428.4527,194.9301c-0.8785,6.2132,0.8632,12.7547,4.715,17.7084c2.1709,2.7919,4.9372,5.0525,7.6782,7.2874
			c3.7853,3.0865,7.5706,6.1729,11.3559,9.2594"/>
		<path class="st1" d="M424.301,221.9632c4.6914,5.1563,9.3828,10.3126,14.0742,15.4689c0.9814,1.0786,1.9645,2.8125,0.9108,3.8206"
			/>
		<path class="st1" d="M407.058,260.3039c4.1855,0.6872,7.6347,4.5243,7.8736,8.7592"/>
		<path class="st1" d="M395.9109,284c1.2469,1.1179,2.4937,2.2358,3.7406,3.3537c-2.1435-1.253-4.287-2.5059-6.4304-3.7589"/>
		<path class="st1" d="M302.0985,291.2795c6.4004-0.923,12.4459,2.7728,17.964,6.1488c7.9356,4.8546,15.1962,3.6458,22.8049,6.3465
			c8.7774,3.1155,17.8139,12.6065,26.2893,17.1854"/>
		<path class="st1" d="M319.7637,279.7524c2.5844,4.4131,5.6604,8.5381,9.1527,12.2741"/>
		<path class="st1" d="M127.6982,161.9035c-0.0472-1.4476-0.0944-2.8953-0.1416-4.3429c0.6959,6.4174,1.3917,12.8349,2.0876,19.2523
			c0.6004,5.5374,0.583,12.3775-4.2467,15.1519c-2.5541,1.4672-6.2261,1.5978-7.5048,4.2534
			c-2.1281,4.425,3.0548,11.7613-5.0267,11.1301c-5.3061-0.4226-13.724-11.3074-16.6153-15.539"/>
		<path class="st1" d="M123.7303,210.3966c5.5052,2.2443,10.3911,5.987,13.9916,10.7178c2.3494,3.0871,4.1828,6.6063,7.0095,9.2634
			c3.5716,3.3573,8.6353,5.0647,13.5106,4.5555"/>
		<path class="st1" d="M116.2368,223.4166c5.3941,3.3511,9.8513,7.9835,14.7693,12.0009s10.6237,7.5391,16.9579,7.9901"/>
		<path class="st1" d="M174.4168,255.2966c-0.8549,0.0672-0.7358-1.3264-0.2193-2.0108c2.7452-3.6375,7.2424-6.7178,7.1133-11.2731
			c-0.0158-0.5589-0.1643-1.1992-0.6643-1.4495c-0.5-0.2503-1.2469,0.3674-0.9025,0.8079"/>
		<path class="st1" d="M231.8648,298.4757c-4.9464-2.0593-10.2207-4.3932-12.9809-8.9854c-1.2243-2.037-1.9164-4.471-3.6924-6.0503
			c-2.6478-2.3546-6.6295-1.9829-10.159-2.2941c-11.7784-1.0387-20.6924-10.6942-28.3725-19.6844
			c-2.2547-2.6394,0.2361-8.026,3.1082-9.9756"/>
		<path class="st1" d="M232.1211,286.1029c3.2452,1.7753,4.8853,5.4228,6.6024,8.6992
			c6.626,12.6427,17.5628,22.9756,30.5611,28.8735c4.4862,2.0356,9.4991,3.7863,12.2696,7.8599
			c1.7337,2.5492,2.5343,5.9379,5.1729,7.5323"/>
		<path class="st1" d="M246.1795,315.0387c-1.1059-0.7411-1.6917,1.4946-1.1228,2.6982c1.6175,3.4223,3.9509,6.5042,6.8063,8.9893
			c4.1839,3.6414,9.3859,5.9496,13.6133,9.5404c4.2274,3.5908,7.5077,9.2768,5.8266,14.5625"/>
		<path class="st1" d="M264.4273,305.6001c-3.0108,4.4732-3.7963,10.3696-2.0615,15.4749"/>
		<path class="st1" d="M221.5224,231.2321c-4.8949,4.7667-7.3871,11.8866-6.5332,18.6655"/>
		<path class="st1" d="M158.405,187.8189c3.6836,3.8024,7.1856,7.7807,10.4902,11.9168c0.6996,0.8757,1.4174,2.0813,0.8229,3.0314
			c-0.2849,0.4553-0.8019,0.7008-1.2911,0.9225c-2.3189,1.0512-4.6379,2.1024-6.9568,3.1537
			c-0.8014,0.3633-1.624,0.7322-2.5016,0.7959c-1.619,0.1176-3.1094-0.8066-4.4664-1.6974
			c-9.7059-6.3714-19.3174-12.8864-28.8305-19.5422"/>
		<path class="st1" d="M188.155,209.0576c2.7864,3.1086,5.8889,5.9337,9.2441,8.4177c11.8356,8.7622,26.6598,13.203,37.4727,23.1999
			"/>
		<path class="st1" d="M189.1267,226.9381c0.2074,2.8152,2.2572,5.2029,4.6427,6.7122c2.3855,1.5092,5.128,2.3322,7.7285,3.4301
			c5.3108,2.2422,10.1068,5.6937,13.9196,10.0174"/>
		<path class="st1" d="M223.3016,253.8154c6.2273,3.4564,9.1907,10.779,14.5413,15.4796c2.6985,2.3707,5.9395,4.0157,9.0542,5.8047
			c7.1866,4.1278,13.864,9.141,19.8333,14.8902c-0.7334,2.8037-1.4667,5.6075-2.2001,8.4113
			c-0.1719,0.6572-0.3571,1.34-0.8041,1.8514c-1.2255,1.4018-3.5092,0.7532-5.161-0.106c-3.5419-1.8424-6.8284-4.1748-9.7367-6.9099
			c-1.7669-1.6617-3.4355-3.5012-5.5894-4.6164c-1.565-0.8103-3.308-1.1954-5.011-1.6488
			c-5.9906-1.5948-11.7293-4.1324-16.9403-7.4905c-0.9524-0.6138-1.9063-1.2728-2.5776-2.1855
			c-1.2206-1.6595-1.3188-3.8679-2.0491-5.7942c-0.7303-1.9263-2.7807-3.7667-4.6641-2.9319"/>
		<path class="st1" d="M276.2798,290.9955c11.3531,3.8307,17.8014,17.5252,29.5979,19.6252
			c1.1295,0.2011,2.5273,0.4869,2.8279,1.5941c0.1337,0.4926-0.0097,1.0134-0.1556,1.5026
			c-1.8236,6.115-4.1399,12.0829-6.9189,17.8271c-7.8637-9.6772-16.9727-20.0742-29.3475-21.6069"/>
		<path class="st1" d="M311.8482,343.8622c6.9697,4.238,13.0522,9.9277,17.7454,16.5994c1.3886,1.974,2.7199,4.0956,4.7567,5.3903
			c1.6211,1.0303,3.5473,1.4417,5.4274,1.8348c0.662,0.1384,1.4962,0.2122,1.8724-0.3499s-0.7803-1.3301-0.8947-0.6635"/>
		<path class="st1" d="M460.0181,245.5426c4.9346-4.5357,9.0938-9.9129,12.2436-15.8292c1.4397-2.7042,2.6068-4.3383,2.1053-7.3605"
			/>
		<path class="st1" d="M472.6618,254.3341c-4.0703,3.8803-9.0482,6.8026-14.4203,8.4653"/>
		<path class="st1" d="M448.7622,276.0507c-0.6942,7.9822-4.6516,15.632-10.7656,20.8105
			c-2.0018,1.6955-4.3549,3.3244-5.0703,5.8483"/>
		<path class="st1" d="M403.9825,286.5897c-2.7932,2.6634-1.4974,7.3438,0.3611,10.7263c1.8586,3.3825,4.1741,7.221,2.799,10.8272"
			/>
		<path class="st1" d="M385.7015,311.031c-0.2049-0.7103-0.4099-1.4205-0.6148-2.1308c4.0624,3.6409,8.5306,6.8286,13.2953,9.485"/>
		<path class="st1" d="M350.6987,350.6655c3.2367-0.485,6.4733-0.97,9.71-1.455c2.5933-0.3886,5.2063-0.7821,7.6737-1.67
			c3.812-1.3717,7.1208-3.8657,10.8462-5.4577c4.2195-1.8031,8.946-2.4012,13.4816-1.7058"/>
		<path class="st1" d="M342.0189,370.2286c7.5101-2.3257,14.3468-6.7841,19.5034-12.7187"/>
		<path class="st1" d="M337.7736,385.7014c2.9787-2.6085,5.9574-5.2169,8.9361-7.8254"/>
		<path class="st1" d="M340.4523,400.6843c5.2272-3.6068,9.6228-8.4113,12.7517-13.9379"/>
		<path class="st1" d="M353.4013,403.9031c8.2398-7.778,7.0143-21.7982,14.3932-30.3973"/>
		<path class="st1" d="M420.766,322.3248c-1.6758-1.3422-4.0076,0.4581-5.368,2.1191
			c-9.5557,11.6678-19.1114,23.3355-28.6671,35.0032c-2.8792,3.5155-5.843,7.198-6.8837,11.6212
			c-0.9181,3.902-0.4993,8.6076-3.5472,11.2112"/>
		<path class="st1" d="M418.0124,336.8692c0.8635,0.9316,0.7422,2.5922-0.2477,3.3883"/>
		<path class="st1" d="M404.815,346.2307c2.5744,2.8978,3.2141,7.3635,1.5569,10.8675"/>
		<path class="st1" d="M429.2535,296.4765c-3.6625-0.6085-6.3744,3.3404-7.5345,6.8672c-1.1601,3.5268-2.2092,7.712-5.6111,9.199"/>
		<path class="st1" d="M427.673,254.3405c2.2999,0.2302,3.6182,2.7449,4.0971,5.0062c1.1215,5.2953-0.1457,11.0498-3.3877,15.3842"
			/>
		<path class="st1" d="M442.1174,238.4388c1.1143,7.8459-0.5701,16.0603-4.6823,22.8345"/>
	</g>
</g>
</svg>
