<svg version="1.1" xmlns="http://www.w3.org/2000/svg" viewBox="0 0 492 95">
<style type="text/css">
	path{fill:#242323;}
</style>
<g>
	<path d="M58.3314,85.8707H42.0966V77.213h-0.3619c-4.3281,6.975-11.7865,10.343-19.0018,10.343
		C4.5705,87.556,0,77.3312,0,61.9378V23.6912h17.0807v35.1204c0,10.2227,3.0054,15.2738,10.9439,15.2738
		c9.2592,0,13.2307-5.172,13.2307-17.8011V23.6912h17.0761V85.8707z"/>
	<path d="M69.6331,42.8158c0.9623-15.9957,15.2754-20.8067,29.2266-20.8067c12.3861,0,27.2995,2.7651,27.2995,17.6792
		v32.3533c0,5.6523,0.6015,11.3044,2.1646,13.8291h-17.3171c-0.6015-1.923-1.0824-3.9682-1.2012-6.0122
		c-5.4126,5.6536-13.3516,7.6975-20.9295,7.6975c-11.7858,0-21.1678-5.8939-21.1678-18.6426
		c0-14.0721,10.5845-17.44,21.1678-18.8816c10.4631-1.5645,20.2071-1.2019,20.2071-8.1794c0-7.3355-5.052-8.4179-11.0661-8.4179
		c-6.4948,0-10.7041,2.6448-11.3057,9.3813H69.6331z M109.0831,55.443c-2.8872,2.5266-8.9013,2.6468-14.193,3.609
		c-5.2916,1.0823-10.1024,2.8858-10.1024,9.1403c0,6.3733,4.9317,7.9371,10.463,7.9371c13.3496,0,13.8324-10.584,13.8324-14.3118
		V55.443z"/>
	<path d="M139.2658,0h17.08v85.8707h-17.08V0z"/>
	<path d="M194.1071,43.2966h-18.8802V24.7742h18.8802V43.2966z M175.2269,67.3503h18.8802v18.5204h-18.8802V67.3503z"/>
	<path d="M234.9129,30.5736c-0.3789-2.4365-1.9326-3.7392-4.4111-3.7392c-3.8223,0-5.083,3.8652-5.083,7.0576
		c0,3.1084,1.2187,6.8476,4.957,6.8476c2.7725,0,4.3692-1.7646,4.7471-4.4111h5.7549c-0.7559,5.7549-4.7471,8.9053-10.46,8.9053
		c-6.5537,0-10.9639-4.6201-10.9639-11.1319c0-6.7627,4.0323-11.7617,11.0899-11.7617c5.125,0,9.8301,2.6885,10.208,8.2334H234.9129
		z"/>
	<path d="M243.3094,29.6068c0.336-5.5869,5.335-7.2666,10.208-7.2666c4.3262,0,9.5352,0.9658,9.5352,6.1748v11.2998
		c0,1.9746,0.2099,3.9492,0.7568,4.8311h-6.0498c-0.2099-0.6719-0.3779-1.3867-0.4199-2.1006
		c-1.8897,1.9746-4.6631,2.6885-7.3096,2.6885c-4.1162,0-7.3926-2.0586-7.3926-6.5108c0-4.915,3.6963-6.0908,7.3926-6.5957
		c3.6553-0.5459,7.0576-0.4199,7.0576-2.8564c0-2.5625-1.7646-2.9404-3.8642-2.9404c-2.2686,0-3.7393,0.9248-3.9492,3.2763H243.3094
		z M257.0877,34.018c-1.0078,0.8818-3.1084,0.9238-4.957,1.2607c-1.8476,0.3779-3.5283,1.0078-3.5283,3.1924
		c0,2.2265,1.7226,2.7724,3.6543,2.7724c4.6631,0,4.831-3.6972,4.831-4.999V34.018z"/>
	<path d="M267.1649,22.9281h5.6289v2.9404h0.084c1.5537-2.2265,3.8222-3.5283,6.6367-3.5283
		c2.7305,0,5.167,1.0078,6.3437,3.6123c1.2598-1.8906,3.5284-3.6123,6.5528-3.6123c4.6211,0,7.9394,2.1426,7.9394,7.7715v14.5342
		h-5.9648V32.3373c0-2.8984-0.252-5.293-3.6553-5.293c-3.3603,0-3.9902,2.7725-3.9902,5.5029v12.0987h-5.9649V32.4633
		c0-2.5196,0.168-5.419-3.6132-5.419c-1.1758,0-4.0323,0.7569-4.0323,4.999v12.6026h-5.9648V22.9281z"/>
	<path d="M304.3768,14.6527h5.9648v10.9219h0.084c1.4698-2.2266,4.1582-3.2344,6.8467-3.2344
		c4.3272,0,8.9902,3.4863,8.9902,11.4258c0,7.9814-4.663,11.4678-8.9902,11.4678c-3.1924,0-5.8389-0.9658-7.1406-3.3604h-0.084
		v2.7725h-5.6709V14.6527z M315.2147,26.8344c-3.5293,0-5.083,3.3193-5.083,6.9736c0,3.6123,1.5537,6.9316,5.083,6.9316
		c3.5283,0,5.083-3.3193,5.083-6.9316C320.2977,30.1537,318.743,26.8344,315.2147,26.8344z"/>
	<path d="M334.2811,35.2367c0.168,3.7803,2.0166,5.5029,5.335,5.5029c2.3945,0,4.3271-1.4707,4.705-2.8154h5.251
		c-1.6807,5.125-5.251,7.3096-10.166,7.3096c-6.8477,0-11.0898-4.7051-11.0898-11.4258c0-6.5108,4.4941-11.4678,11.0898-11.4678
		c7.3936,0,10.9639,6.2168,10.5439,12.8965H334.2811z M343.9852,31.4555c-0.5469-3.0245-1.8486-4.6211-4.7471-4.6211
		c-3.7812,0-4.873,2.9404-4.957,4.6211H343.9852z"/>
	<path d="M352.8016,22.9281h5.6709v4.0322h0.084c1.0928-2.7304,4.0332-4.6201,6.9316-4.6201
		c0.42,0,0.9239,0.084,1.3018,0.21v5.5449c-0.5459-0.126-1.4277-0.21-2.1426-0.21c-4.3682,0-5.8809,3.1504-5.8809,6.9727v9.7881
		h-5.9648V22.9281z"/>
	<path d="M394.0497,44.6459h-6.1329l-3.8642-14.5762h-0.084l-3.6973,14.5762h-6.1748l-6.8896-21.7178h6.3017
		l3.9903,14.7441h0.084l3.6132-14.7441h5.7969l3.6963,14.7022h0.084l3.9912-14.7022h6.1328L394.0497,44.6459z"/>
	<path d="M406.2264,35.2367c0.168,3.7803,2.0166,5.5029,5.335,5.5029c2.3945,0,4.3271-1.4707,4.705-2.8154h5.251
		c-1.6806,5.125-5.251,7.3096-10.166,7.3096c-6.8476,0-11.0898-4.7051-11.0898-11.4258c0-6.5108,4.4941-11.4678,11.0898-11.4678
		c7.3936,0,10.9639,6.2168,10.544,12.8965H406.2264z M415.9305,31.4555c-0.5469-3.0245-1.8486-4.6211-4.7471-4.6211
		c-3.7812,0-4.873,2.9404-4.957,4.6211H415.9305z"/>
	<path d="M424.9149,14.6527h5.9648v29.9932h-5.9648V14.6527z"/>
	<path d="M435.0789,14.6527h5.9649v29.9932h-5.9649V14.6527z"/>
	<path d="M234.9129,71.8842c-0.3789-2.4366-1.9326-3.7393-4.4111-3.7393c-3.8223,0-5.083,3.8652-5.083,7.0576
		c0,3.1084,1.2187,6.8477,4.957,6.8477c2.7725,0,4.3692-1.7647,4.7471-4.4112h5.7549c-0.7559,5.7549-4.7471,8.9053-10.46,8.9053
		c-6.5537,0-10.9639-4.6201-10.9639-11.1318c0-6.7627,4.0323-11.7617,11.0899-11.7617c5.125,0,9.8301,2.6884,10.208,8.2334H234.9129
		z"/>
	<path d="M254.2313,63.6508c6.8476,0,11.2578,4.5361,11.2578,11.4677c0,6.8897-4.4102,11.4258-11.2578,11.4258
		c-6.8057,0-11.2158-4.5361-11.2158-11.4258C243.0155,68.1869,247.4256,63.6508,254.2313,63.6508z M254.2313,82.0502
		c4.0752,0,5.293-3.4873,5.293-6.9317c0-3.4863-1.2178-6.9736-5.293-6.9736c-4.0322,0-5.251,3.4873-5.251,6.9736
		C248.9803,78.5629,250.1991,82.0502,254.2313,82.0502z"/>
	<path d="M268.8036,55.9633h5.9648v29.9931h-5.9648V55.9633z"/>
	<path d="M279.0926,55.9633h5.9649v29.9931h-5.9649V55.9633z"/>
	<path d="M294.0457,76.5472c0.168,3.7803,2.0166,5.503,5.335,5.503c2.3945,0,4.3272-1.4707,4.7051-2.8155h5.251
		c-1.6807,5.125-5.251,7.3096-10.1661,7.3096c-6.8476,0-11.0898-4.7051-11.0898-11.4258c0-6.5107,4.4941-11.4677,11.0898-11.4677
		c7.3936,0,10.9639,6.2168,10.544,12.8964H294.0457z M303.7498,72.766c-0.5468-3.0244-1.8486-4.6211-4.747-4.6211
		c-3.7813,0-4.8731,2.9404-4.9571,4.6211H303.7498z"/>
	<path d="M333.5702,84.5697c0,3.5713-1.2608,9.6201-11.2579,9.6201c-4.2851,0-9.2841-2.0166-9.5781-6.9736h5.9229
		c0.5468,2.2266,2.3525,2.9834,4.4531,2.9834c3.3184,0,4.8311-2.2686,4.7891-5.377v-2.8564h-0.084
		c-1.3028,2.2676-3.9072,3.3603-6.5117,3.3603c-6.5108,0-9.2832-4.957-9.2832-10.9218c0-5.6289,3.2343-10.7539,9.3252-10.7539
		c2.8564,0,5.041,0.9658,6.4697,3.4863h0.084v-2.8984h5.6709V84.5697z M327.8993,74.8246c0-3.5283-1.2188-6.6797-5.083-6.6797
		c-3.3604,0-4.8311,2.9404-4.8311,6.1758c0,3.1084,1.1758,6.5107,4.8311,6.5107C326.2186,80.8314,327.8993,77.933,327.8993,74.8246z
		"/>
	<path d="M342.6385,76.5472c0.168,3.7803,2.0166,5.503,5.335,5.503c2.3945,0,4.3271-1.4707,4.7051-2.8155h5.2509
		c-1.6806,5.125-5.2509,7.3096-10.166,7.3096c-6.8467,0-11.0898-4.7051-11.0898-11.4258c0-6.5107,4.4951-11.4677,11.0898-11.4677
		c7.3936,0,10.9639,6.2168,10.544,12.8964H342.6385z M352.3426,72.766c-0.5459-3.0244-1.8486-4.6211-4.747-4.6211
		c-3.7803,0-4.8731,2.9404-4.9571,4.6211H352.3426z"/>
	<path d="M381.0614,63.6508c6.8467,0,11.2578,4.5361,11.2578,11.4677c0,6.8897-4.4111,11.4258-11.2578,11.4258
		c-6.8056,0-11.2168-4.5361-11.2168-11.4258C369.8446,68.1869,374.2558,63.6508,381.0614,63.6508z M381.0614,82.0502
		c4.0743,0,5.292-3.4873,5.292-6.9317c0-3.4863-1.2177-6.9736-5.292-6.9736c-4.0332,0-5.2509,3.4873-5.2509,6.9736
		C375.8105,78.5629,377.0282,82.0502,381.0614,82.0502z"/>
	<path d="M396.6835,68.2289h-3.5713v-3.9902h3.5713V62.558c0-3.8223,2.3936-6.5947,7.2666-6.5947
		c1.0508,0,2.1426,0.1259,3.1504,0.1679v4.4532c-0.7139-0.084-1.4277-0.126-2.1836-0.126c-1.5967,0-2.2686,0.6719-2.2686,2.4775
		v1.3028h4.1163v3.9902h-4.1163v17.7275h-5.9648V68.2289z"/>
	<path d="M417.5898,70.9174c0.3369-5.5869,5.335-7.2666,10.208-7.2666c4.3272,0,9.5362,0.9658,9.5362,6.1748v11.2998
		c0,1.9746,0.2099,3.9492,0.7558,4.831h-6.0488c-0.21-0.6718-0.3779-1.3867-0.4199-2.1006
		c-1.8907,1.9747-4.6631,2.6885-7.3096,2.6885c-4.1172,0-7.3936-2.0586-7.3936-6.5107c0-4.9151,3.6973-6.0908,7.3936-6.5957
		c3.6543-0.5459,7.0576-0.4199,7.0576-2.8565c0-2.5625-1.7646-2.9404-3.8652-2.9404c-2.2686,0-3.7383,0.9248-3.9483,3.2764H417.5898
		z M431.3691,75.3285c-1.0088,0.8818-3.1094,0.9238-4.957,1.2607c-1.8486,0.378-3.5293,1.0079-3.5293,3.1924
		c0,2.2266,1.7226,2.7725,3.6553,2.7725c4.663,0,4.831-3.6973,4.831-4.999V75.3285z"/>
	<path d="M440.5644,64.2387h5.6709v4.0322h0.084c1.0918-2.7305,4.0322-4.6201,6.9307-4.6201
		c0.4199,0,0.9248,0.0839,1.3027,0.2099v5.5449c-0.5459-0.1259-1.4287-0.2099-2.1426-0.2099c-4.3691,0-5.8808,3.1504-5.8808,6.9726
		v9.7881h-5.9649V64.2387z"/>
	<path d="M465.3447,64.2387h4.3691v3.9902h-4.3691v10.7539c0,2.0166,0.5049,2.5205,2.5205,2.5205
		c0.6309,0,1.2188-0.042,1.8486-0.168v4.6631c-1.0078,0.168-2.3105,0.21-3.4863,0.21c-3.6553,0-6.8476-0.8399-6.8476-5.167V68.2289
		h-3.6123v-3.9902h3.6123v-6.5118h5.9648V64.2387z"/>
	<path d="M476.6006,78.8988c0.042,2.6045,2.2265,3.6553,4.5791,3.6553c1.7216,0,3.9062-0.6729,3.9062-2.7725
		c0-1.8066-2.4785-2.4365-6.7637-3.3613c-3.4443-0.7559-6.8886-1.9736-6.8886-5.7969c0-5.5449,4.789-6.9726,9.4511-6.9726
		c4.7471,0,9.1163,1.5957,9.5782,6.9306h-5.6709c-0.168-2.3105-1.9327-2.9404-4.0752-2.9404c-1.3438,0-3.3184,0.252-3.3184,2.0166
		c0,2.1426,3.3604,2.4365,6.7637,3.2344c3.4863,0.7978,6.8887,2.0586,6.8887,6.0908c0,5.7139-4.9571,7.5615-9.9141,7.5615
		c-5.04,0-9.9551-1.8896-10.207-7.6455H476.6006z"/>
</g>
</svg>
